<svg xmlns="http://www.w3.org/2000/svg" viewBox="0 0 96 96" fill="none">
  <rect x="14" y="40" width="68" height="42" rx="4" fill="#F59E0B"/>
  <rect x="14" y="40" width="68" height="14" rx="3" fill="#D97706"/>
  <rect x="42" y="40" width="12" height="42" fill="#D97706"/>
  <path d="M48 40C48 40 34 38 34 26C34 18 42 14 48 22C54 14 62 18 62 26C62 38 48 40 48 40Z" fill="#F59E0B"/>
  <path d="M48 40C48 40 34 38 34 26C34 18 42 14 48 22" stroke="#D97706" stroke-width="2" stroke-linecap="round"/>
  <path d="M48 40C48 40 62 38 62 26C62 18 54 14 48 22" stroke="#D97706" stroke-width="2" stroke-linecap="round"/>
</svg>
