<svg width="1599" height="288" viewBox="0 0 1599 288" fill="none" xmlns="http://www.w3.org/2000/svg">
<mask id="mask0_263_310" style="mask-type:luminance" maskUnits="userSpaceOnUse" x="0" y="0" width="478" height="288">
<path d="M477.333 0H0V288H477.333V0Z" fill="white"/>
</mask>
<g mask="url(#mask0_263_310)">
<path d="M140.43 141.866C149.831 144.84 157.19 149.813 162.513 156.782C167.831 163.741 170.492 172.313 170.492 182.491C170.492 196.897 164.893 207.97 153.701 215.72C142.503 223.47 126.185 227.345 104.742 227.345H19.7422V62.9697H100.055C120.081 62.9697 135.456 66.8031 146.18 74.4697C156.914 82.1364 162.284 92.5479 162.284 105.699C162.284 113.688 160.357 120.813 156.513 127.074C152.68 133.34 147.315 138.272 140.43 141.866ZM57.5339 91.6156V130.366H95.3464C104.732 130.366 111.852 128.72 116.701 125.428C121.56 122.136 123.992 117.282 123.992 110.866C123.992 104.449 121.56 99.6364 116.701 96.4281C111.852 93.2197 104.732 91.6156 95.3464 91.6156H57.5339ZM101.93 198.699C111.94 198.699 119.492 197.053 124.576 193.761C129.669 190.47 132.221 185.381 132.221 178.491C132.221 164.881 122.122 158.074 101.93 158.074H57.5339V198.699H101.93Z" fill="#0A2A5E"/>
<path d="M304.354 196.345V227.345H180.124V202.678L243.52 142.803C250.255 136.387 254.796 130.876 257.145 126.262C259.489 121.637 260.666 117.053 260.666 112.512C260.666 105.944 258.437 100.897 253.979 97.3659C249.52 93.8398 242.984 92.0742 234.374 92.0742C227.166 92.0742 220.666 93.4492 214.874 96.1992C209.083 98.9388 204.229 103.043 200.312 108.512L172.604 90.6784C179.02 81.1263 187.864 73.6471 199.145 68.2409C210.421 62.8398 223.338 60.1367 237.895 60.1367C250.104 60.1367 260.781 62.1367 269.937 66.1367C279.104 70.1263 286.229 75.7617 291.312 83.0534C296.406 90.3346 298.958 98.9023 298.958 108.762C298.958 117.678 297.072 126.053 293.312 133.887C289.562 141.71 282.281 150.632 271.479 160.658L233.666 196.345H304.354Z" fill="#0A2A5E"/>
<path d="M443.6 141.866C453.001 144.84 460.36 149.813 465.683 156.782C471.001 163.741 473.662 172.313 473.662 182.491C473.662 196.897 468.063 207.97 456.87 215.72C445.673 223.47 429.355 227.345 407.912 227.345H322.912V62.9697H403.225C423.251 62.9697 438.626 66.8031 449.35 74.4697C460.084 82.1364 465.454 92.5479 465.454 105.699C465.454 113.688 463.527 120.813 459.683 127.074C455.85 133.34 450.485 138.272 443.6 141.866ZM360.704 91.6156V130.366H398.516C407.902 130.366 415.021 128.72 419.87 125.428C424.73 122.136 427.162 117.282 427.162 110.866C427.162 104.449 424.73 99.6364 419.87 96.4281C415.021 93.2197 407.902 91.6156 398.516 91.6156H360.704ZM405.1 198.699C415.11 198.699 422.662 197.053 427.745 193.761C432.839 190.47 435.391 185.381 435.391 178.491C435.391 164.881 425.292 158.074 405.1 158.074H360.704V198.699H405.1Z" fill="#0A2A5E"/>
</g>
<path d="M520.787 60.4893L520.787 232.109" stroke="#0A2A5E" stroke-width="5"/>
<mask id="mask1_263_310" style="mask-type:luminance" maskUnits="userSpaceOnUse" x="564" y="46" width="1035" height="196">
<path d="M1598.67 46.667H564V241.334H1598.67V46.667Z" fill="white"/>
</mask>
<g mask="url(#mask1_263_310)">
<path d="M579.611 89.707H600.215V200.645H579.611V89.707Z" fill="#0A2A5E"/>
<path d="M672.804 115.061C683.471 115.061 692.023 118.18 698.471 124.415C704.913 130.654 708.137 139.894 708.137 152.144V200.644H688.325V154.686C688.325 147.285 686.58 141.706 683.096 137.956C679.606 134.206 674.643 132.331 668.2 132.331C660.908 132.331 655.148 134.529 650.929 138.915C646.705 143.305 644.596 149.618 644.596 157.852V200.644H624.783V116.019H643.637V126.956C646.913 123.04 651.033 120.081 655.992 118.081C660.96 116.071 666.564 115.061 672.804 115.061Z" fill="#0A2A5E"/>
<path d="M756 201.748C749.125 201.748 742.406 200.847 735.854 199.061C729.313 197.269 724.089 194.998 720.188 192.248L727.792 177.186C731.594 179.727 736.167 181.764 741.5 183.29C746.833 184.821 752.089 185.581 757.271 185.581C769.104 185.581 775.021 182.472 775.021 176.248C775.021 173.29 773.51 171.227 770.5 170.061C767.484 168.894 762.651 167.785 756 166.727C749.026 165.675 743.344 164.456 738.958 163.081C734.568 161.706 730.76 159.305 727.542 155.873C724.318 152.446 722.708 147.665 722.708 141.54C722.708 133.498 726.063 127.076 732.771 122.269C739.49 117.467 748.552 115.061 759.958 115.061C765.76 115.061 771.568 115.722 777.375 117.04C783.193 118.363 787.958 120.133 791.667 122.352L784.042 137.415C776.859 133.196 768.776 131.081 759.792 131.081C753.984 131.081 749.573 131.956 746.563 133.706C743.563 135.446 742.063 137.738 742.063 140.581C742.063 143.748 743.672 145.993 746.896 147.311C750.115 148.633 755.104 149.873 761.854 151.04C768.615 152.097 774.167 153.311 778.5 154.686C782.833 156.061 786.552 158.389 789.667 161.665C792.792 164.93 794.354 169.576 794.354 175.602C794.354 183.535 790.917 189.873 784.042 194.623C777.177 199.373 767.833 201.748 756 201.748Z" fill="#0A2A5E"/>
<path d="M807.984 116.019H827.796V200.644H807.984V116.019ZM817.963 102.061C814.364 102.061 811.348 100.931 808.921 98.665C806.489 96.389 805.275 93.5609 805.275 90.1859C805.275 86.8109 806.489 83.988 808.921 81.7067C811.348 79.4307 814.364 78.29 817.963 78.29C821.557 78.29 824.567 79.3734 826.984 81.54C829.411 83.7067 830.63 86.4307 830.63 89.7067C830.63 93.1963 829.442 96.1234 827.067 98.4984C824.692 100.873 821.656 102.061 817.963 102.061Z" fill="#0A2A5E"/>
<path d="M934.275 116.019V187.811C934.275 217.597 919.066 232.498 888.65 232.498C880.509 232.498 872.796 231.462 865.504 229.394C858.212 227.337 852.191 224.357 847.441 220.456L856.316 205.561C860.009 208.613 864.681 211.066 870.337 212.915C875.988 214.774 881.717 215.706 887.525 215.706C896.827 215.706 903.65 213.587 907.983 209.352C912.316 205.128 914.483 198.686 914.483 190.019V185.581C911.092 189.29 906.967 192.097 902.108 193.998C897.243 195.889 891.91 196.831 886.108 196.831C878.077 196.831 870.816 195.118 864.316 191.686C857.816 188.258 852.691 183.425 848.941 177.186C845.191 170.951 843.316 163.821 843.316 155.79C843.316 147.764 845.191 140.66 848.941 134.477C852.691 128.3 857.816 123.519 864.316 120.144C870.816 116.758 878.077 115.061 886.108 115.061C892.233 115.061 897.801 116.071 902.816 118.081C907.842 120.081 912.046 123.144 915.421 127.269V116.019H934.275ZM889.108 180.04C896.618 180.04 902.78 177.8 907.587 173.311C912.389 168.811 914.796 162.972 914.796 155.79C914.796 148.722 912.389 142.972 907.587 138.54C902.78 134.097 896.618 131.873 889.108 131.873C881.509 131.873 875.306 134.097 870.504 138.54C865.697 142.972 863.296 148.722 863.296 155.79C863.296 162.972 865.697 168.811 870.504 173.311C875.306 177.8 881.509 180.04 889.108 180.04Z" fill="#0A2A5E"/>
<path d="M1004.81 115.061C1015.48 115.061 1024.03 118.18 1030.48 124.415C1036.92 130.654 1040.15 139.894 1040.15 152.144V200.644H1020.33V154.686C1020.33 147.285 1018.59 141.706 1015.11 137.956C1011.62 134.206 1006.65 132.331 1000.21 132.331C992.918 132.331 987.158 134.529 982.939 138.915C978.715 143.305 976.605 149.618 976.605 157.852V200.644H956.793V83.0605H976.605V125.831C979.866 122.347 983.902 119.68 988.71 117.831C993.527 115.988 998.897 115.061 1004.81 115.061Z" fill="#0A2A5E"/>
<path d="M1112.74 196.04C1110.4 197.946 1107.57 199.373 1104.24 200.331C1100.92 201.274 1097.41 201.748 1093.72 201.748C1084.41 201.748 1077.22 199.321 1072.15 194.456C1067.08 189.597 1064.55 182.519 1064.55 173.227V132.498H1050.61V116.644H1064.55V97.3105H1084.36V116.644H1107.03V132.498H1084.36V172.748C1084.36 176.873 1085.36 180.019 1087.36 182.186C1089.37 184.352 1092.29 185.436 1096.09 185.436C1100.52 185.436 1104.22 184.269 1107.18 181.936L1112.74 196.04Z" fill="#0A2A5E"/>
<path d="M1213.37 89.707C1222.98 89.707 1231.35 91.3008 1238.47 94.4779C1245.61 97.6445 1251.08 102.186 1254.89 108.103C1258.69 114.02 1260.6 121.04 1260.6 129.165C1260.6 137.197 1258.69 144.197 1254.89 150.165C1251.08 156.139 1245.61 160.707 1238.47 163.874C1231.35 167.04 1222.98 168.624 1213.37 168.624H1188.32V200.645H1167.72V89.707H1213.37ZM1212.41 151.207C1221.39 151.207 1228.21 149.306 1232.85 145.499C1237.5 141.697 1239.82 136.249 1239.82 129.165C1239.82 122.098 1237.5 116.66 1232.85 112.853C1228.21 109.051 1221.39 107.145 1212.41 107.145H1188.32V151.207H1212.41Z" fill="#0A2A5E"/>
<path d="M1307.35 115.061C1319.81 115.061 1329.33 118.05 1335.93 124.019C1342.54 129.993 1345.85 138.998 1345.85 151.04V200.644H1327.14V190.352C1324.72 194.05 1321.26 196.873 1316.76 198.831C1312.28 200.774 1306.86 201.748 1300.51 201.748C1294.18 201.748 1288.63 200.66 1283.87 198.498C1279.12 196.331 1275.45 193.326 1272.87 189.477C1270.29 185.618 1268.99 181.258 1268.99 176.394C1268.99 168.785 1271.82 162.686 1277.47 158.102C1283.12 153.508 1292.02 151.206 1304.16 151.206H1326.04V149.936C1326.04 144.019 1324.26 139.477 1320.72 136.311C1317.19 133.133 1311.94 131.54 1304.95 131.54C1300.2 131.54 1295.53 132.285 1290.93 133.769C1286.33 135.243 1282.45 137.305 1279.29 139.956L1271.51 125.519C1275.96 122.144 1281.3 119.561 1287.54 117.769C1293.77 115.967 1300.37 115.061 1307.35 115.061ZM1304.64 187.331C1309.61 187.331 1314.02 186.201 1317.87 183.936C1321.73 181.66 1324.45 178.41 1326.04 174.186V164.352H1305.6C1294.18 164.352 1288.47 168.102 1288.47 175.602C1288.47 179.201 1289.9 182.055 1292.74 184.165C1295.6 186.279 1299.57 187.331 1304.64 187.331Z" fill="#0A2A5E"/>
<path d="M1415.75 115.061C1426.41 115.061 1434.96 118.18 1441.41 124.415C1447.85 130.654 1451.08 139.894 1451.08 152.144V200.644H1431.27V154.686C1431.27 147.285 1429.52 141.706 1426.04 137.956C1422.55 134.206 1417.58 132.331 1411.14 132.331C1403.85 132.331 1398.09 134.529 1393.87 138.915C1389.65 143.305 1387.54 149.618 1387.54 157.852V200.644H1367.72V116.019H1386.58V126.956C1389.85 123.04 1393.97 120.081 1398.93 118.081C1403.9 116.071 1409.51 115.061 1415.75 115.061Z" fill="#0A2A5E"/>
<path d="M1553.13 158.811C1553.13 160.186 1553.03 162.139 1552.82 164.665H1486.42C1487.59 170.904 1490.62 175.847 1495.53 179.498C1500.44 183.139 1506.55 184.956 1513.84 184.956C1523.13 184.956 1530.79 181.894 1536.82 175.769L1547.44 187.956C1543.64 192.514 1538.82 195.951 1533.01 198.269C1527.2 200.592 1520.65 201.748 1513.36 201.748C1504.07 201.748 1495.88 199.904 1488.8 196.206C1481.71 192.514 1476.24 187.368 1472.38 180.769C1468.53 174.16 1466.61 166.68 1466.61 158.331C1466.61 150.097 1468.48 142.68 1472.23 136.081C1475.98 129.472 1481.18 124.321 1487.84 120.623C1494.51 116.915 1502.01 115.061 1510.36 115.061C1518.59 115.061 1525.96 116.889 1532.46 120.54C1538.96 124.18 1544.03 129.305 1547.67 135.915C1551.31 142.514 1553.13 150.144 1553.13 158.811ZM1510.36 130.915C1504.01 130.915 1498.64 132.79 1494.26 136.54C1489.88 140.29 1487.21 145.285 1486.26 151.519H1534.28C1533.43 145.394 1530.84 140.43 1526.51 136.623C1522.18 132.821 1516.8 130.915 1510.36 130.915Z" fill="#0A2A5E"/>
<path d="M1568.67 83.0605H1588.49V200.644H1568.67V83.0605Z" fill="#0A2A5E"/>
</g>
</svg>
